<?xml version="1.0" encoding="UTF-8"?>
<svg id="Layer_1" data-name="Layer 1" xmlns="http://www.w3.org/2000/svg" xmlns:xlink="http://www.w3.org/1999/xlink" viewBox="0 0 282.91 88.14">
  <defs>
    <style>
      .cls-1 {
        fill: url(#linear-gradient-2);
        stroke: url(#linear-gradient-3);
      }

      .cls-1, .cls-2 {
        stroke-miterlimit: 10;
        stroke-width: 3px;
      }

      .cls-3 {
        fill: #08bcc1;
      }

      .cls-4 {
        fill: #9064aa;
      }

      .cls-5 {
        fill: url(#linear-gradient-4);
      }

      .cls-6 {
        fill: #231f20;
      }

      .cls-7 {
        fill: #f15f4b;
      }

      .cls-8 {
        fill: #1d1d1b;
      }

      .cls-9 {
        fill: #00b482;
      }

      .cls-2 {
        fill: none;
        stroke: url(#linear-gradient);
      }
    </style>
    <linearGradient id="linear-gradient" x1="25.41" y1="26.45" x2="257.87" y2="26.45" gradientUnits="userSpaceOnUse">
      <stop offset="0" stop-color="#9064aa"/>
      <stop offset="1" stop-color="#08bcc1"/>
    </linearGradient>
    <linearGradient id="linear-gradient-2" x1="0" y1="86.64" x2="282.91" y2="86.64" gradientUnits="userSpaceOnUse">
      <stop offset="0" stop-color="#f15f4b"/>
      <stop offset=".04" stop-color="#e3634e"/>
      <stop offset=".24" stop-color="#9f7b5d"/>
      <stop offset=".44" stop-color="#668f6a"/>
      <stop offset=".62" stop-color="#3a9f74"/>
      <stop offset=".78" stop-color="#1aaa7b"/>
      <stop offset=".91" stop-color="#06b180"/>
      <stop offset="1" stop-color="#00b482"/>
    </linearGradient>
    <linearGradient id="linear-gradient-3" x1="0" y1="86.64" x2="282.91" y2="86.64" gradientUnits="userSpaceOnUse">
      <stop offset="0" stop-color="#f15f4b"/>
      <stop offset=".09" stop-color="#ca6c53"/>
      <stop offset=".22" stop-color="#957f5f"/>
      <stop offset=".35" stop-color="#678f6a"/>
      <stop offset=".48" stop-color="#429c72"/>
      <stop offset=".62" stop-color="#25a679"/>
      <stop offset=".75" stop-color="#10ae7e"/>
      <stop offset=".88" stop-color="#04b281"/>
      <stop offset="1" stop-color="#00b482"/>
    </linearGradient>
    <linearGradient id="linear-gradient-4" x1="49.79" y1="9.24" x2="173.46" y2="9.24" gradientUnits="userSpaceOnUse">
      <stop offset="0" stop-color="#9064aa"/>
      <stop offset=".14" stop-color="#8a67aa"/>
      <stop offset=".32" stop-color="#7b71ad"/>
      <stop offset=".52" stop-color="#6181b1"/>
      <stop offset=".74" stop-color="#3e98b7"/>
      <stop offset=".96" stop-color="#11b6bf"/>
      <stop offset="1" stop-color="#08bcc1"/>
    </linearGradient>
  </defs>
  <g>
    <path class="cls-6" d="M57.04,53.16c-1.49,0-2.73-.37-3.72-1.1-.99-.74-1.74-1.76-2.23-3.08-.5-1.32-.74-2.87-.74-4.64s.25-3.3.76-4.61c.5-1.31,1.26-2.34,2.27-3.07,1.01-.74,2.26-1.1,3.74-1.1s2.64.28,3.41.83,1.15,1.2,1.15,1.96c0,.54-.21,1-.64,1.37-.42.37-1.05.55-1.88.55,0-.53-.07-1.04-.2-1.55-.14-.5-.37-.92-.7-1.24-.33-.32-.77-.48-1.33-.48-1.17,0-1.98.65-2.45,1.94-.46,1.3-.7,3.1-.7,5.4s.29,4.17.86,5.36c.58,1.19,1.56,1.79,2.95,1.79.69,0,1.27-.12,1.74-.35.47-.23.87-.53,1.2-.89.33-.36.6-.72.83-1.09.1.1.17.24.23.42.06.18.08.36.08.54,0,.42-.14.86-.41,1.33-.27.47-.75.88-1.43,1.21s-1.61.5-2.8.5Z"/>
    <path class="cls-6" d="M62.82,52.92v-1.18h.24c.4,0,.72-.12.97-.35.25-.23.37-.7.37-1.4v-12.62c0-.45-.08-.78-.23-.98-.15-.21-.34-.35-.55-.42-.22-.07-.4-.11-.56-.11h-.24v-1.18h4.7v15.31c0,.7.13,1.17.38,1.4.26.23.58.35.98.35h.22v1.18h-6.29Z"/>
    <path class="cls-6" d="M69.3,52.92v-1.18h.22c.42,0,.75-.12,1.01-.35.26-.23.38-.69.38-1.38v-7.13c0-.66-.12-1.1-.36-1.32-.24-.22-.56-.34-.96-.34h-.31v-1.18h4.73v9.94c0,.7.12,1.17.37,1.4.25.23.58.35,1,.35h.22v1.18h-6.29ZM72.35,37.75c-.5,0-.9-.13-1.22-.38-.32-.26-.48-.66-.48-1.2s.16-.96.48-1.21c.32-.25.73-.37,1.22-.37s.89.12,1.24.37c.34.25.52.65.52,1.21s-.17.94-.52,1.2c-.34.26-.76.38-1.24.38Z"/>
    <path class="cls-6" d="M77.32,52.92v-1.18h.17c.43,0,.77-.1,1.02-.29.25-.19.37-.66.37-1.39v-7.27c0-.7-.12-1.15-.37-1.33-.25-.18-.59-.28-1.02-.28h-.07v-1.13h4.22l.26,1.8h.12c.27-.69.65-1.21,1.13-1.56.48-.35,1.14-.53,1.99-.53.69,0,1.28.17,1.76.49.49.33.84.88,1.07,1.67h.1c.5-1.44,1.53-2.16,3.1-2.16,1.04,0,1.86.37,2.45,1.12s.89,1.92.89,3.54v5.62c0,.74.1,1.2.31,1.4s.53.3.96.3h.07v1.18h-4.46v-8.04c0-1.02-.11-1.82-.32-2.39-.22-.57-.6-.85-1.14-.85-.42,0-.74.16-.98.48-.24.32-.42.74-.53,1.27-.11.53-.17,1.1-.17,1.73v4.92c0,.74.1,1.2.3,1.4.2.2.52.3.95.3h.1v1.18h-4.44v-8.04c0-1.02-.1-1.82-.31-2.39-.21-.57-.58-.85-1.13-.85-.4,0-.73.18-.98.53-.26.35-.44.82-.55,1.39-.11.58-.17,1.19-.17,1.85v4.75c0,.69.12,1.12.35,1.31.23.18.57.28,1.02.28h.05v1.18h-6.1Z"/>
    <path class="cls-6" d="M100.24,53.16c-.85,0-1.57-.32-2.16-.95-.59-.63-.89-1.61-.89-2.94s.36-2.25,1.08-2.87c.72-.62,1.82-.96,3.29-1.02l1.61-.07v-1.34c0-.91-.09-1.61-.28-2.1-.18-.49-.53-.73-1.04-.73-.46,0-.8.23-1,.7-.2.46-.3,1.1-.3,1.92-1.7,0-2.54-.53-2.54-1.58,0-.8.39-1.4,1.18-1.8.78-.4,1.76-.6,2.93-.6,1.38,0,2.42.31,3.12.92.7.62,1.06,1.68,1.06,3.18v6.17c0,.66.08,1.1.25,1.34s.48.36.92.36h.07v1.18h-3.77l-.41-1.78h-.19c-.43.64-.84,1.14-1.22,1.49-.38.35-.95.53-1.7.53ZM101.42,51.63c.54,0,.98-.31,1.3-.92.32-.62.48-1.4.48-2.36v-1.85l-.82.07c-.75.06-1.27.33-1.56.79-.29.46-.43,1.14-.43,2.04,0,.69.08,1.23.25,1.63.17.4.43.6.78.6Z"/>
    <path class="cls-6" d="M111.13,53.16c-.98,0-1.73-.28-2.27-.83s-.8-1.53-.8-2.94v-7.94h-1.46v-1.03c.48-.03.88-.14,1.2-.34.32-.19.58-.42.79-.67.18-.24.34-.54.49-.89.15-.35.28-.82.37-1.42h1.73v2.95h2.5v1.39h-2.5v7.75c0,.77.09,1.32.28,1.67.18.34.51.52.97.52.53,0,1.01-.07,1.44-.22v1.46c-.22.11-.57.23-1.03.35-.46.12-1.03.18-1.7.18Z"/>
    <path class="cls-6" d="M120.28,53.16c-1.71,0-3-.58-3.85-1.73-.86-1.15-1.28-2.77-1.28-4.85,0-2.26.43-3.96,1.28-5.1.86-1.14,2.07-1.72,3.64-1.72,1.44,0,2.58.5,3.41,1.49s1.25,2.43,1.25,4.32v1.1h-6.43c.03,1.68.28,2.91.74,3.7.46.78,1.14,1.18,2.02,1.18.67,0,1.22-.2,1.63-.59.42-.39.74-.87.96-1.43.19.06.36.17.49.32.14.15.2.36.2.64,0,.4-.14.8-.41,1.21s-.71.75-1.31,1.03c-.6.28-1.38.42-2.34.42ZM118.34,45.29h3.29c.02-1.25-.09-2.24-.32-2.99s-.62-1.12-1.16-1.12-.98.36-1.3,1.07c-.32.71-.49,1.72-.5,3.04Z"/>
    <path class="cls-6" d="M131.13,52.92v-1.18h.6c.3,0,.58-.08.84-.25s.38-.58.38-1.24v-11.78c0-.66-.14-1.07-.41-1.25-.27-.18-.54-.26-.82-.26h-.6v-1.18h6.43c2.05,0,3.49.38,4.33,1.15.84.77,1.26,1.89,1.26,3.36,0,.91-.13,1.67-.38,2.27-.26.6-.6,1.08-1.02,1.44-.42.36-.89.63-1.4.8l2.4,4.94c.32.67.62,1.17.9,1.5.28.33.6.49.95.49h.12v1.18h-.7c-1.09,0-1.98-.14-2.68-.41-.7-.27-1.23-.86-1.6-1.75l-2.28-5.3h-1.27v4.8c0,.66.1,1.07.31,1.24s.49.25.84.25h.38v1.18h-6.6ZM136.19,44.14h.94c.91,0,1.58-.31,1.99-.92.42-.62.62-1.52.62-2.72,0-2.26-.85-3.38-2.54-3.38h-1.01v7.03Z"/>
    <path class="cls-6" d="M150.69,53.16c-1.71,0-3-.58-3.85-1.73-.86-1.15-1.28-2.77-1.28-4.85,0-2.26.43-3.96,1.28-5.1.86-1.14,2.07-1.72,3.64-1.72,1.44,0,2.58.5,3.41,1.49s1.25,2.43,1.25,4.32v1.1h-6.43c.03,1.68.28,2.91.74,3.7.46.78,1.14,1.18,2.02,1.18.67,0,1.22-.2,1.63-.59.42-.39.74-.87.96-1.43.19.06.36.17.49.32.14.15.2.36.2.64,0,.4-.14.8-.41,1.21s-.71.75-1.31,1.03c-.6.28-1.38.42-2.34.42ZM148.74,45.29h3.29c.02-1.25-.09-2.24-.32-2.99s-.62-1.12-1.16-1.12-.98.36-1.3,1.07c-.32.71-.49,1.72-.5,3.04Z"/>
    <path class="cls-6" d="M160.48,53.16c-1.41,0-2.42-.24-3.04-.71-.62-.47-.92-1.12-.92-1.93,0-.61.18-1.04.53-1.3.35-.26.77-.38,1.25-.38,0,.96.2,1.7.59,2.22.39.52.94.78,1.64.78.66,0,1.13-.17,1.42-.52s.43-.79.43-1.33-.18-.96-.53-1.28c-.35-.33-.93-.68-1.73-1.04-.78-.35-1.42-.71-1.92-1.07-.5-.36-.87-.79-1.12-1.28-.25-.5-.37-1.11-.37-1.85,0-1.22.38-2.13,1.15-2.75.77-.62,1.78-.92,3.05-.92s2.1.23,2.64.68.82.99.82,1.6c0,1.01-.61,1.51-1.82,1.51,0-.82-.18-1.44-.53-1.86-.35-.42-.81-.64-1.37-.64-.46,0-.84.14-1.12.42-.28.28-.42.67-.42,1.16,0,.58.17,1.02.5,1.33.34.31.95.67,1.85,1.07.69.3,1.28.63,1.78.98.5.35.88.78,1.14,1.27s.4,1.11.4,1.85c0,1.22-.37,2.18-1.1,2.9s-1.8,1.08-3.19,1.08Z"/>
    <path class="cls-6" d="M165.69,52.92v-1.18h.22c.42,0,.75-.12,1.01-.35.26-.23.38-.69.38-1.38v-7.13c0-.66-.12-1.1-.36-1.32-.24-.22-.56-.34-.96-.34h-.31v-1.18h4.73v9.94c0,.7.12,1.17.37,1.4.25.23.58.35,1,.35h.22v1.18h-6.29ZM168.73,37.75c-.5,0-.9-.13-1.22-.38-.32-.26-.48-.66-.48-1.2s.16-.96.48-1.21c.32-.25.73-.37,1.22-.37s.89.12,1.24.37c.34.25.52.65.52,1.21s-.17.94-.52,1.2c-.34.26-.76.38-1.24.38Z"/>
    <path class="cls-6" d="M172.67,52.92v-1.18h.24c.4,0,.72-.12.97-.35.25-.23.37-.7.37-1.4v-12.62c0-.45-.08-.78-.23-.98-.15-.21-.34-.35-.55-.42-.22-.07-.4-.11-.56-.11h-.24v-1.18h4.7v15.31c0,.7.13,1.17.38,1.4.26.23.58.35.98.35h.22v1.18h-6.29Z"/>
    <path class="cls-6" d="M179.61,52.92v-1.18h.22c.42,0,.75-.12,1.01-.35.26-.23.38-.69.38-1.38v-7.13c0-.66-.12-1.1-.36-1.32-.24-.22-.56-.34-.96-.34h-.31v-1.18h4.73v9.94c0,.7.12,1.17.37,1.4.25.23.58.35,1,.35h.22v1.18h-6.29ZM182.65,37.75c-.5,0-.9-.13-1.22-.38-.32-.26-.48-.66-.48-1.2s.16-.96.48-1.21c.32-.25.73-.37,1.22-.37s.89.12,1.24.37c.34.25.52.65.52,1.21s-.17.94-.52,1.2c-.34.26-.76.38-1.24.38Z"/>
    <path class="cls-6" d="M192.28,53.16c-1.71,0-3-.58-3.85-1.73-.86-1.15-1.28-2.77-1.28-4.85,0-2.26.43-3.96,1.28-5.1.86-1.14,2.07-1.72,3.64-1.72,1.44,0,2.58.5,3.41,1.49s1.25,2.43,1.25,4.32v1.1h-6.43c.03,1.68.28,2.91.74,3.7.46.78,1.14,1.18,2.02,1.18.67,0,1.22-.2,1.63-.59.42-.39.74-.87.96-1.43.19.06.36.17.49.32.14.15.2.36.2.64,0,.4-.14.8-.41,1.21s-.71.75-1.31,1.03c-.6.28-1.38.42-2.34.42ZM190.33,45.29h3.29c.02-1.25-.09-2.24-.32-2.99s-.62-1.12-1.16-1.12-.98.36-1.3,1.07c-.32.71-.49,1.72-.5,3.04Z"/>
    <path class="cls-6" d="M197.87,52.92v-1.18h.12c.45,0,.8-.1,1.06-.29.26-.19.38-.66.38-1.39v-7.25c0-.69-.12-1.12-.37-1.31-.25-.18-.58-.28-1-.28h-.1v-1.18h4.25l.24,1.8h.1c.29-.69.66-1.21,1.12-1.56.46-.35,1.08-.53,1.88-.53,1.04,0,1.83.37,2.38,1.12s.82,1.92.82,3.54v5.62c0,.74.1,1.2.31,1.4s.53.3.96.3h.1v1.18h-4.46v-8.04c0-1.02-.1-1.82-.29-2.4-.19-.58-.56-.86-1.1-.86-.43,0-.78.18-1.03.54-.26.36-.44.83-.54,1.4-.1.58-.16,1.19-.16,1.85v4.75c0,.69.12,1.12.35,1.31.23.18.56.28,1,.28h.1v1.18h-6.1Z"/>
    <path class="cls-6" d="M216.42,53.16c-.98,0-1.83-.22-2.57-.65-.74-.43-1.31-1.13-1.73-2.09-.42-.96-.62-2.25-.62-3.86,0-1.73.22-3.08.65-4.07.43-.98,1.01-1.68,1.74-2.1.73-.42,1.55-.62,2.46-.62,1.39,0,2.4.24,3.01.72.62.48.92,1.07.92,1.78,0,.35-.07.67-.2.95-.14.28-.39.5-.77.67-.38.17-.92.25-1.64.25,0-.82-.09-1.52-.26-2.11-.18-.59-.5-.89-.96-.89-.37,0-.68.16-.95.48-.26.32-.47.87-.62,1.66-.15.78-.23,1.87-.23,3.26,0,1.65.18,2.9.55,3.76.37.86.98,1.28,1.82,1.28.66,0,1.21-.19,1.67-.58s.8-.86,1.02-1.42c.18.11.32.25.42.41.1.16.16.36.16.6,0,.37-.12.75-.35,1.15-.23.4-.63.74-1.19,1.01-.56.27-1.34.41-2.33.41Z"/>
    <path class="cls-6" d="M227.03,53.16c-1.71,0-3-.58-3.85-1.73-.86-1.15-1.28-2.77-1.28-4.85,0-2.26.43-3.96,1.28-5.1.86-1.14,2.07-1.72,3.64-1.72,1.44,0,2.58.5,3.41,1.49s1.25,2.43,1.25,4.32v1.1h-6.43c.03,1.68.28,2.91.74,3.7.46.78,1.14,1.18,2.02,1.18.67,0,1.22-.2,1.63-.59.42-.39.74-.87.96-1.43.19.06.36.17.49.32.14.15.2.36.2.64,0,.4-.14.8-.41,1.21s-.71.75-1.31,1.03c-.6.28-1.38.42-2.34.42ZM225.09,45.29h3.29c.02-1.25-.09-2.24-.32-2.99s-.62-1.12-1.16-1.12-.98.36-1.3,1.07c-.32.71-.49,1.72-.5,3.04Z"/>
    <path class="cls-6" d="M49.79,78.92v-1.18h.53c.45,0,.78-.09.98-.28.21-.18.31-.56.31-1.12v-11.95c0-.56-.1-.94-.31-1.14-.21-.2-.46-.3-.77-.3h-.74v-1.18h10.94l.12,4.34h-1.42l-.1-1.13c-.06-.59-.22-1.05-.47-1.37-.25-.32-.56-.48-.95-.48h-3.1v6.67h4.66v1.37h-4.66v5.09c0,.54.11.92.32,1.14.22.22.54.32.97.32h.94v1.18h-7.27Z"/>
    <path class="cls-6" d="M61.82,78.92v-1.18h.22c.42,0,.75-.12,1.01-.35.26-.23.38-.69.38-1.38v-7.13c0-.66-.12-1.1-.36-1.32-.24-.22-.56-.34-.96-.34h-.31v-1.18h4.73v9.94c0,.7.12,1.17.37,1.4.25.23.58.35,1,.35h.22v1.18h-6.29ZM64.86,63.75c-.5,0-.9-.13-1.22-.38-.32-.26-.48-.66-.48-1.2s.16-.96.48-1.21c.32-.25.73-.37,1.22-.37s.89.12,1.24.37c.34.25.52.65.52,1.21s-.17.94-.52,1.2c-.34.26-.76.38-1.24.38Z"/>
    <path class="cls-6" d="M68.82,78.92v-1.18h.12c.45,0,.8-.1,1.06-.29.26-.19.38-.66.38-1.39v-7.25c0-.69-.12-1.12-.37-1.31-.25-.18-.58-.28-1-.28h-.1v-1.18h4.25l.24,1.8h.1c.29-.69.66-1.21,1.12-1.56.46-.35,1.08-.53,1.88-.53,1.04,0,1.83.37,2.38,1.12s.82,1.92.82,3.54v5.62c0,.74.1,1.2.31,1.4s.53.3.96.3h.1v1.18h-4.46v-8.04c0-1.02-.1-1.82-.29-2.4-.19-.58-.56-.86-1.1-.86-.43,0-.78.18-1.03.54-.26.36-.44.83-.54,1.4-.1.58-.16,1.19-.16,1.85v4.75c0,.69.12,1.12.35,1.31.23.18.56.28,1,.28h.1v1.18h-6.1Z"/>
    <path class="cls-6" d="M85.48,79.16c-.85,0-1.57-.32-2.16-.95-.59-.63-.89-1.61-.89-2.94s.36-2.25,1.08-2.87c.72-.62,1.82-.96,3.29-1.02l1.61-.07v-1.34c0-.91-.09-1.61-.28-2.1-.18-.49-.53-.73-1.04-.73-.46,0-.8.23-1,.7-.2.46-.3,1.1-.3,1.92-1.7,0-2.54-.53-2.54-1.58,0-.8.39-1.4,1.18-1.8.78-.4,1.76-.6,2.93-.6,1.38,0,2.42.31,3.12.92.7.62,1.06,1.68,1.06,3.18v6.17c0,.66.08,1.1.25,1.34s.48.36.92.36h.07v1.18h-3.77l-.41-1.78h-.19c-.43.64-.84,1.14-1.22,1.49-.38.35-.95.53-1.7.53ZM86.65,77.63c.54,0,.98-.31,1.3-.92.32-.62.48-1.4.48-2.36v-1.85l-.82.07c-.75.06-1.27.33-1.56.79-.29.46-.43,1.14-.43,2.04,0,.69.08,1.23.25,1.63.17.4.43.6.78.6Z"/>
    <path class="cls-6" d="M93.76,78.92v-1.18h.12c.45,0,.8-.1,1.06-.29.26-.19.38-.66.38-1.39v-7.25c0-.69-.12-1.12-.37-1.31-.25-.18-.58-.28-1-.28h-.1v-1.18h4.25l.24,1.8h.1c.29-.69.66-1.21,1.12-1.56.46-.35,1.08-.53,1.88-.53,1.04,0,1.83.37,2.38,1.12s.82,1.92.82,3.54v5.62c0,.74.1,1.2.31,1.4s.53.3.96.3h.1v1.18h-4.46v-8.04c0-1.02-.1-1.82-.29-2.4-.19-.58-.56-.86-1.1-.86-.43,0-.78.18-1.03.54-.26.36-.44.83-.54,1.4-.1.58-.16,1.19-.16,1.85v4.75c0,.69.12,1.12.35,1.31.23.18.56.28,1,.28h.1v1.18h-6.1Z"/>
    <path class="cls-6" d="M112.31,79.16c-.98,0-1.83-.22-2.57-.65-.74-.43-1.31-1.13-1.73-2.09-.42-.96-.62-2.25-.62-3.86,0-1.73.22-3.08.65-4.07.43-.98,1.01-1.68,1.74-2.1.73-.42,1.55-.62,2.46-.62,1.39,0,2.4.24,3.01.72.62.48.92,1.07.92,1.78,0,.35-.07.67-.2.95-.14.28-.39.5-.77.67-.38.17-.92.25-1.64.25,0-.82-.09-1.52-.26-2.11-.18-.59-.5-.89-.96-.89-.37,0-.68.16-.95.48-.26.32-.47.87-.62,1.66-.15.78-.23,1.87-.23,3.26,0,1.65.18,2.9.55,3.76.37.86.98,1.28,1.82,1.28.66,0,1.21-.19,1.67-.58s.8-.86,1.02-1.42c.18.11.32.25.42.41.1.16.16.36.16.6,0,.37-.12.75-.35,1.15-.23.4-.63.74-1.19,1.01-.56.27-1.34.41-2.33.41Z"/>
    <path class="cls-6" d="M122.92,79.16c-1.71,0-3-.58-3.85-1.73-.86-1.15-1.28-2.77-1.28-4.85,0-2.26.43-3.96,1.28-5.1.86-1.14,2.07-1.72,3.64-1.72,1.44,0,2.58.5,3.41,1.49s1.25,2.43,1.25,4.32v1.1h-6.43c.03,1.68.28,2.91.74,3.7.46.78,1.14,1.18,2.02,1.18.67,0,1.22-.2,1.63-.59.42-.39.74-.87.96-1.43.19.06.36.17.49.32.14.15.2.36.2.64,0,.4-.14.8-.41,1.21s-.71.75-1.31,1.03c-.6.28-1.38.42-2.34.42ZM120.98,71.29h3.29c.02-1.25-.09-2.24-.32-2.99s-.62-1.12-1.16-1.12-.98.36-1.3,1.07c-.32.71-.49,1.72-.5,3.04Z"/>
    <path class="cls-8" d="M138.69,79.16c-1.23,0-2.2-.16-2.9-.48-.7-.32-1.2-.73-1.48-1.24-.28-.5-.42-1.03-.42-1.57,0-.75.22-1.29.66-1.61.44-.32.95-.48,1.52-.48.03,1.34.34,2.36.91,3.04.58.68,1.25,1.02,2.02,1.02s1.3-.25,1.7-.76.6-1.15.6-1.93c0-.9-.29-1.6-.88-2.12-.58-.52-1.41-1.06-2.48-1.62-1.34-.69-2.29-1.45-2.83-2.28-.54-.83-.82-1.86-.82-3.07,0-.93.22-1.73.65-2.4s1.02-1.19,1.75-1.56c.74-.37,1.57-.55,2.5-.55s1.75.14,2.38.42c.62.28,1.09.64,1.4,1.08.31.44.47.89.47,1.36,0,.54-.18.97-.55,1.28-.37.31-.98.47-1.82.47,0-.54-.08-1.06-.25-1.56-.17-.5-.42-.9-.74-1.22-.33-.32-.74-.48-1.24-.48-.59,0-1.06.21-1.4.64-.34.42-.52,1.02-.52,1.79,0,.46.09.89.26,1.27.18.38.5.76.97,1.13.47.37,1.15.77,2.03,1.2,1.36.69,2.33,1.43,2.9,2.23.58.8.86,1.81.86,3.02,0,1.55-.48,2.77-1.45,3.66-.97.89-2.24,1.33-3.8,1.33Z"/>
    <path class="cls-8" d="M150.57,79.16c-1.03,0-1.78-.38-2.25-1.14-.47-.76-.71-1.96-.71-3.59v-5.52c0-.69-.08-1.14-.24-1.36-.16-.22-.45-.32-.88-.32h-.06v-1.18h3.96v7.9c0,1.14.09,1.98.26,2.53.17.55.51.83,1.01.83.54,0,.93-.34,1.17-1.02.24-.68.35-1.59.35-2.72v-4.73c0-.72-.1-1.17-.3-1.34-.2-.18-.46-.26-.79-.26h-.06v-1.18h3.91v10.13c0,.7.11,1.14.33,1.31.22.17.5.25.82.25h.15v1.18h-3.55l-.41-1.8h-.09c-.29.74-.64,1.26-1.07,1.57-.43.31-.95.47-1.56.47Z"/>
    <path class="cls-8" d="M158.13,78.92v-1.18h.17c.43,0,.77-.1,1.02-.29.25-.19.37-.66.37-1.39v-7.27c0-.7-.12-1.15-.37-1.33-.25-.18-.59-.28-1.02-.28h-.07v-1.13h4.22l.26,1.8h.12c.27-.69.65-1.21,1.13-1.56.48-.35,1.14-.53,1.99-.53.69,0,1.28.17,1.76.49.49.33.84.88,1.07,1.67h.1c.5-1.44,1.53-2.16,3.1-2.16,1.04,0,1.86.37,2.45,1.12s.89,1.92.89,3.54v5.62c0,.74.1,1.2.31,1.4s.53.3.96.3h.07v1.18h-4.46v-8.04c0-1.02-.11-1.82-.32-2.39-.22-.57-.6-.85-1.14-.85-.42,0-.74.16-.98.48-.24.32-.42.74-.53,1.27-.11.53-.17,1.1-.17,1.73v4.92c0,.74.1,1.2.3,1.4.2.2.52.3.95.3h.1v1.18h-4.44v-8.04c0-1.02-.1-1.82-.31-2.39-.21-.57-.58-.85-1.13-.85-.4,0-.73.18-.98.53-.26.35-.44.82-.55,1.39-.11.58-.17,1.19-.17,1.85v4.75c0,.69.12,1.12.35,1.31.23.18.57.28,1.02.28h.05v1.18h-6.1Z"/>
    <path class="cls-8" d="M177.49,78.92v-1.18h.17c.43,0,.77-.1,1.02-.29.25-.19.37-.66.37-1.39v-7.27c0-.7-.12-1.15-.37-1.33-.25-.18-.59-.28-1.02-.28h-.07v-1.13h4.22l.26,1.8h.12c.27-.69.65-1.21,1.13-1.56.48-.35,1.14-.53,1.99-.53.69,0,1.28.17,1.76.49.49.33.84.88,1.07,1.67h.1c.5-1.44,1.53-2.16,3.1-2.16,1.04,0,1.86.37,2.45,1.12s.89,1.92.89,3.54v5.62c0,.74.1,1.2.31,1.4s.53.3.96.3h.07v1.18h-4.46v-8.04c0-1.02-.11-1.82-.32-2.39-.22-.57-.6-.85-1.14-.85-.42,0-.74.16-.98.48-.24.32-.42.74-.53,1.27-.11.53-.17,1.1-.17,1.73v4.92c0,.74.1,1.2.3,1.4.2.2.52.3.95.3h.1v1.18h-4.44v-8.04c0-1.02-.1-1.82-.31-2.39-.21-.57-.58-.85-1.13-.85-.4,0-.73.18-.98.53-.26.35-.44.82-.55,1.39-.11.58-.17,1.19-.17,1.85v4.75c0,.69.12,1.12.35,1.31.23.18.57.28,1.02.28h.05v1.18h-6.1Z"/>
    <path class="cls-8" d="M196.81,78.92v-1.18h.22c.42,0,.75-.12,1.01-.35.26-.23.38-.69.38-1.38v-7.13c0-.66-.12-1.1-.36-1.32-.24-.22-.56-.34-.96-.34h-.31v-1.18h4.73v9.94c0,.7.12,1.17.37,1.4.25.23.58.35,1,.35h.22v1.18h-6.29ZM199.86,63.75c-.5,0-.9-.13-1.22-.38-.32-.26-.48-.66-.48-1.2s.16-.96.48-1.21c.32-.25.73-.37,1.22-.37s.89.12,1.24.37c.34.25.52.65.52,1.21s-.17.94-.52,1.2c-.34.26-.76.38-1.24.38Z"/>
    <path class="cls-8" d="M208.41,79.16c-.98,0-1.73-.28-2.27-.83s-.8-1.53-.8-2.94v-7.94h-1.46v-1.03c.48-.03.88-.14,1.2-.34.32-.19.58-.42.79-.67.18-.24.34-.54.49-.89.15-.35.28-.82.37-1.42h1.73v2.95h2.5v1.39h-2.5v7.75c0,.77.09,1.32.28,1.67.18.34.51.52.97.52.53,0,1.01-.07,1.44-.22v1.46c-.22.11-.57.23-1.03.35-.46.12-1.03.18-1.7.18Z"/>
  </g>
  <rect class="cls-4" x="25.41" y="25.42" width="15.59" height="62.25"/>
  <rect class="cls-3" x="242.28" y="25.38" width="15.59" height="62.2"/>
  <rect class="cls-7" y="36.24" width="15.59" height="51.43"/>
  <rect class="cls-9" x="267.32" y="36.23" width="15.59" height="51.34"/>
  <polyline class="cls-2" points="25.41 26.45 257.87 26.45 257.87 26.45 25.41 26.45"/>
  <polyline class="cls-1" points="0 86.64 282.91 86.64 282.91 86.64 0 86.64"/>
  <path class="cls-5" d="M49.79,18.24v-1.18h.79c.27,0,.51-.1.72-.31.21-.21.31-.59.31-1.15V3.79c0-.59-.11-.99-.34-1.2-.22-.21-.5-.31-.82-.31h-.67v-1.18h6.89v1.18h-.72c-.4,0-.68.1-.85.3-.17.2-.25.57-.25,1.12v13.18h3.62c.45,0,.8-.18,1.04-.53.25-.35.44-.88.59-1.58l.34-1.8h1.06l-.1,5.28h-11.62ZM68.1,18.48c-1.58,0-2.83-.55-3.74-1.66-.91-1.1-1.37-2.78-1.37-5.04s.44-3.94,1.31-5.04,2.16-1.66,3.88-1.66c1.58,0,2.83.55,3.73,1.66.9,1.1,1.36,2.78,1.36,5.04,0,4.46-1.72,6.7-5.16,6.7ZM68.15,17.06c.74,0,1.24-.45,1.52-1.34.28-.9.42-2.21.42-3.94s-.14-3.06-.43-3.94c-.29-.88-.8-1.32-1.54-1.32s-1.22.44-1.51,1.32c-.29.88-.43,2.19-.43,3.94s.15,3.04.44,3.94c.3.9.8,1.34,1.52,1.34ZM74.54,18.24v-1.18h.12c.45,0,.8-.1,1.06-.29.26-.19.38-.66.38-1.39v-7.25c0-.69-.12-1.12-.37-1.31-.25-.18-.58-.28-1-.28h-.1v-1.18h4.25l.24,1.8h.1c.29-.69.66-1.21,1.12-1.56.46-.35,1.08-.53,1.88-.53,1.04,0,1.83.37,2.38,1.12.54.74.82,1.92.82,3.54v5.62c0,.74.1,1.2.31,1.4.21.2.53.3.96.3h.1v1.18h-4.46v-8.04c0-1.02-.1-1.82-.29-2.4-.19-.58-.56-.86-1.1-.86-.43,0-.78.18-1.03.54-.26.36-.44.83-.54,1.4-.1.58-.16,1.19-.16,1.85v4.75c0,.69.12,1.12.35,1.31.23.18.56.28,1,.28h.1v1.18h-6.1ZM92.13,18.48c-1.28,0-2.26-.53-2.95-1.6s-1.03-2.75-1.03-5.05.34-4.02,1.03-5.1c.69-1.08,1.66-1.62,2.93-1.62.74,0,1.32.18,1.76.54.44.36.8.81,1.07,1.36h.1c-.02-.37-.03-.78-.04-1.24,0-.46-.01-.92-.01-1.38v-1.66c0-.69-.16-1.12-.47-1.3s-.68-.26-1.09-.26h-.17V0h4.85v15.24c0,.74.12,1.22.37,1.46.25.24.61.36,1.09.36h.17v1.18h-3.98l-.48-1.97h-.1c-.3.69-.7,1.23-1.18,1.62-.48.39-1.1.59-1.87.59ZM93.04,16.87c.72,0,1.22-.44,1.51-1.33.29-.89.43-2.13.43-3.73s-.14-2.91-.42-3.79c-.28-.88-.79-1.32-1.52-1.32-.62,0-1.07.44-1.34,1.33-.27.89-.41,2.16-.41,3.8s.14,2.96.41,3.79c.27.83.72,1.25,1.34,1.25ZM106.07,18.48c-1.58,0-2.83-.55-3.74-1.66-.91-1.1-1.37-2.78-1.37-5.04s.44-3.94,1.31-5.04,2.16-1.66,3.88-1.66c1.58,0,2.83.55,3.73,1.66.9,1.1,1.36,2.78,1.36,5.04,0,4.46-1.72,6.7-5.16,6.7ZM106.12,17.06c.74,0,1.24-.45,1.52-1.34.28-.9.42-2.21.42-3.94s-.14-3.06-.43-3.94c-.29-.88-.8-1.32-1.54-1.32s-1.22.44-1.51,1.32c-.29.88-.43,2.19-.43,3.94s.15,3.04.44,3.94c.3.9.8,1.34,1.52,1.34ZM112.5,18.24v-1.18h.12c.45,0,.8-.1,1.06-.29.26-.19.38-.66.38-1.39v-7.25c0-.69-.12-1.12-.37-1.31-.25-.18-.58-.28-1-.28h-.1v-1.18h4.25l.24,1.8h.1c.29-.69.66-1.21,1.12-1.56.46-.35,1.08-.53,1.88-.53,1.04,0,1.83.37,2.38,1.12.54.74.82,1.92.82,3.54v5.62c0,.74.1,1.2.31,1.4.21.2.53.3.96.3h.1v1.18h-4.46v-8.04c0-1.02-.1-1.82-.29-2.4-.19-.58-.56-.86-1.1-.86-.43,0-.78.18-1.03.54-.26.36-.44.83-.54,1.4-.1.58-.16,1.19-.16,1.85v4.75c0,.69.12,1.12.35,1.31.23.18.56.28,1,.28h.1v1.18h-6.1ZM131.03,18.24v-2.09l2.88-3.84c.78-1.01,1.4-1.91,1.85-2.71.45-.8.76-1.56.95-2.27.18-.71.28-1.45.28-2.22,0-.98-.14-1.7-.42-2.17-.28-.47-.65-.71-1.12-.71-.66,0-1.13.34-1.42,1.01-.29.67-.43,1.62-.43,2.86-.64,0-1.22-.14-1.73-.41-.51-.27-.77-.79-.77-1.56,0-.54.16-1.07.48-1.57.32-.5.8-.91,1.44-1.22.64-.31,1.45-.47,2.42-.47,1.5,0,2.65.38,3.43,1.14.78.76,1.18,1.76,1.18,2.99,0,.9-.17,1.75-.5,2.57-.34.82-.8,1.62-1.38,2.4-.58.78-1.27,1.61-2.05,2.47l-2.95,3.41h4.34c.37,0,.7-.14.98-.42s.5-.7.62-1.26l.17-.67h1.22l-.1,4.75h-9.38ZM146.75,18.48c-1.22,0-2.18-.35-2.88-1.06s-1.21-1.72-1.51-3.05c-.3-1.33-.46-2.91-.46-4.75s.15-3.37.44-4.68.8-2.32,1.51-3.02c.71-.7,1.68-1.06,2.92-1.06,1.17,0,2.1.35,2.8,1.04s1.2,1.7,1.51,3.01.47,2.89.47,4.73-.16,3.4-.48,4.72c-.32,1.32-.83,2.34-1.54,3.05-.7.71-1.63,1.07-2.78,1.07ZM146.75,17.04c.7,0,1.16-.65,1.38-1.94s.32-3.11.32-5.45-.11-4.14-.32-5.42c-.22-1.28-.67-1.92-1.36-1.92-.74,0-1.21.64-1.42,1.92-.21,1.28-.31,3.09-.31,5.42s.1,4.15.31,5.45c.21,1.3.67,1.94,1.39,1.94ZM152.92,18.24v-2.09l2.88-3.84c.78-1.01,1.4-1.91,1.85-2.71.45-.8.76-1.56.95-2.27.18-.71.28-1.45.28-2.22,0-.98-.14-1.7-.42-2.17-.28-.47-.65-.71-1.12-.71-.66,0-1.13.34-1.42,1.01-.29.67-.43,1.62-.43,2.86-.64,0-1.22-.14-1.73-.41-.51-.27-.77-.79-.77-1.56,0-.54.16-1.07.48-1.57.32-.5.8-.91,1.44-1.22.64-.31,1.45-.47,2.42-.47,1.5,0,2.65.38,3.43,1.14.78.76,1.18,1.76,1.18,2.99,0,.9-.17,1.75-.5,2.57-.34.82-.8,1.62-1.38,2.4-.58.78-1.27,1.61-2.05,2.47l-2.95,3.41h4.34c.37,0,.7-.14.98-.42s.5-.7.62-1.26l.17-.67h1.22l-.1,4.75h-9.38ZM168.9,18.48c-1.46,0-2.64-.66-3.54-1.99s-1.36-3.42-1.36-6.29.44-5.28,1.33-6.9c.89-1.62,2.24-2.44,4.04-2.44,1.28,0,2.21.26,2.8.79.58.53.88,1.14.88,1.82,0,.51-.18.92-.53,1.24s-.92.47-1.7.47c0-.85-.13-1.56-.38-2.14-.26-.58-.64-.86-1.15-.86-.74,0-1.3.57-1.68,1.72-.38,1.14-.61,2.78-.67,4.91.27-.26.61-.49,1.01-.71.4-.22.94-.32,1.63-.32,1.17,0,2.11.44,2.82,1.31s1.07,2.08,1.07,3.64c0,1.14-.17,2.14-.52,3-.34.86-.85,1.54-1.52,2.03-.67.49-1.51.73-2.52.73ZM168.95,17.04c.5,0,.88-.33,1.16-.98.28-.66.42-1.69.42-3.1,0-1.33-.15-2.29-.46-2.89-.3-.6-.72-.9-1.25-.9-.45,0-.83.12-1.14.36-.31.24-.56.47-.76.7.02,2.27.21,3.98.59,5.11s.85,1.7,1.43,1.7Z"/>
</svg>